<svg id="Layer_1" data-name="Layer 1" xmlns="http://www.w3.org/2000/svg" viewBox="0 0 300 300"><defs><style>.cls-1{fill:#5c5c5c;}</style></defs><path class="cls-1" d="M176.8,112.64a11.53,11.53,0,0,1,11.6,11.43,2.35,2.35,0,0,0,4.7,0,11.53,11.53,0,0,1,11.6-11.43,2.35,2.35,0,1,0,0-4.7,11.53,11.53,0,0,1-11.6-11.43,2.35,2.35,0,0,0-4.7,0,11.53,11.53,0,0,1-11.6,11.43,2.35,2.35,0,0,0,0,4.7Zm8.47-2.35a16.2,16.2,0,0,0,5.48-5.44,16.29,16.29,0,0,0,5.48,5.44,16.2,16.2,0,0,0-5.48,5.44A16.11,16.11,0,0,0,185.27,110.29Z"/><path class="cls-1" d="M204.34,74.3A18.66,18.66,0,0,1,223.1,92.81a2.35,2.35,0,0,0,4.7,0A18.65,18.65,0,0,1,246.56,74.3a2.35,2.35,0,0,0,0-4.7A18.65,18.65,0,0,1,227.8,51.09a2.35,2.35,0,0,0-4.7,0A18.66,18.66,0,0,1,204.34,69.6a2.35,2.35,0,1,0,0,4.7ZM214.62,72a23.3,23.3,0,0,0,10.83-10.74A23.32,23.32,0,0,0,236.27,72a23.3,23.3,0,0,0-10.82,10.73A23.28,23.28,0,0,0,214.62,72Z"/><path class="cls-1" d="M107.34,272.24a11.93,11.93,0,1,0-11.93-11.93A11.94,11.94,0,0,0,107.34,272.24Zm-6.51-11.93a6.52,6.52,0,1,1,6.51,6.52A6.52,6.52,0,0,1,100.83,260.31Z"/><path class="cls-1" d="M251,272.24a11.93,11.93,0,1,0-11.93-11.93A11.95,11.95,0,0,0,251,272.24Zm-6.52-11.93a6.52,6.52,0,1,1,6.52,6.52A6.52,6.52,0,0,1,244.51,260.31Z"/><path class="cls-1" d="M149.22,158.1a38.22,38.22,0,1,0,38.22,38.22A38.27,38.27,0,0,0,149.22,158.1Zm-20.16,29.25a42.56,42.56,0,0,1,4.71-3.19,38.39,38.39,0,0,1,3.83,3.71,2.71,2.71,0,0,0,4.7-2.08,48.14,48.14,0,0,1-.25-5.39,28.13,28.13,0,0,1,8.26-1.37,21.85,21.85,0,0,1,6.18,1,41.92,41.92,0,0,1-.52,7.4,2.71,2.71,0,0,0,4.47,2.43,49,49,0,0,1,6.21-4.73c1,.68,1.93,1.38,2.82,2.11a27,27,0,0,0-16.74,15.17l-1.35,3.08H147.1l-1.36-3.09A27.07,27.07,0,0,0,129.06,187.35Zm27.17,21.51a2.45,2.45,0,0,0,0-1l1.42-3.23a21.62,21.62,0,0,1,13.88-12.32,8,8,0,0,1,3.12-.42,2.71,2.71,0,0,0,2.93-3.69c-.94-2.32-5.85-6.16-8.91-8.16-1.18-.78-2.6-1.21-6.76,1.72.08-5-1.28-6-2.58-6.43a27.69,27.69,0,0,0-9-1.7,32,32,0,0,0-11.46,2.13c-1.2.43-2,1.26-2.23,3.82-2.33-1.66-3.47-1.3-4.44-.77-5.49,3-10.5,7.19-11.41,9.45a2.71,2.71,0,0,0,.4,2.7,2.69,2.69,0,0,0,2.54,1,8,8,0,0,1,3.12.42,21.58,21.58,0,0,1,13.9,12.29l1.18,2.67a2.77,2.77,0,0,0-.1,1.56l2.27,9.59v10.27a32.82,32.82,0,1,1,9.87,0l0-10.34Zm-6,2.09-1,4.47H149L147.92,211Z"/><path class="cls-1" d="M274.64,210.5a8.51,8.51,0,0,0,.75-8l-11.73-27.39a8.26,8.26,0,0,0-7.79-5.38H231.3a7.21,7.21,0,0,0-7.27,7.12v31.33a6.37,6.37,0,0,0,6.41,6.29h36.77A8.89,8.89,0,0,0,274.64,210.5Zm-45.19-33.67a1.78,1.78,0,0,1,1.85-1.7h24.57a2.92,2.92,0,0,1,2.76,2l11.77,27.5a3,3,0,0,1-.28,2.91h0a3.47,3.47,0,0,1-2.91,1.52H230.44a.93.93,0,0,1-1-.87Z"/><path class="cls-1" d="M291.06,206.26l-18.66-44a8.57,8.57,0,0,0-7.9-5.23H224.82c-1-1.17-3.28-4.31-4.93-6.64C213,140.64,210.77,138,208.16,138H139.73l-6-7.09V86.46A2.72,2.72,0,0,0,131,83.75H110.22a2.71,2.71,0,0,0-2.7,2.71v13.76L88.62,78.05a2.7,2.7,0,0,0-2.06-1,2.73,2.73,0,0,0-2,.92L8.56,165a2.7,2.7,0,0,0,2,4.49h8.87v68a2.71,2.71,0,0,0,2.71,2.71H62.35v12.14A10.78,10.78,0,0,0,73.12,263h9.43a24.94,24.94,0,0,0,49.59,0h94.09a24.94,24.94,0,0,0,49.59,0h6.62a10.78,10.78,0,0,0,10.77-10.77V216.89A27.14,27.14,0,0,0,291.06,206.26ZM112.93,106.57V89.17h15.34v35.4ZM251,240.77a19.54,19.54,0,1,1-19.54,19.54A19.57,19.57,0,0,1,251,240.77Zm0-5.41a25.12,25.12,0,0,0-24.8,22.25H132.14a25,25,0,0,0-10.26-17.5h.19l-1.46-.93A25,25,0,0,0,113.1,236h0c-.33-.07-.66-.15-1-.21s-.46-.09-.69-.12-.62-.1-.94-.14-.75-.09-1.13-.12l-.47,0c-.51,0-1,0-1.54,0s-1,0-1.53,0l-.47,0-1.14.12-.94.14-.68.12a24.85,24.85,0,0,0-8.5,3.35l-1.46.93h.19a25,25,0,0,0-10.26,17.5H73.12a5.37,5.37,0,0,1-5.36-5.36V145.86a2.43,2.43,0,0,1,2.44-2.43H207.65c1.55,1.21,5.62,6.94,7.82,10.06,5.22,7.36,6.39,8.92,8.49,8.92H264.5a3.17,3.17,0,0,1,2.92,1.94l18.65,44a21.58,21.58,0,0,1,1.73,8.51v35.36a5.37,5.37,0,0,1-5.36,5.36h-6.62A25.12,25.12,0,0,0,251,235.36Zm-143.69,5.41A19.54,19.54,0,1,1,87.8,260.31,19.56,19.56,0,0,1,107.34,240.77Zm-82.45-71.3H48a2.71,2.71,0,1,0,0-5.41H16.56L86.53,84,132.62,138H70.2a7.86,7.86,0,0,0-7.85,7.85v88.83H24.89Z"/></svg>